<svg xmlns="http://www.w3.org/2000/svg" width="621" height="675"><defs><clipPath id="a"><path d="M0 211h619.988v464H0Zm0 0"/></clipPath></defs><path d="M543.563 0 133.878 149.52l409.684-72.364Zm0 0" style="stroke:none;fill-rule:nonzero;fill:#ffe600;fill-opacity:1"/><g clip-path="url(#a)"><path d="M199.61 337.05h74.933v-43.51h-74.934v-34.196h82.895L255 211.68H137.457v207.226h165.777v-47.664H199.605v-34.191Zm213.964-125.366-35.203 67.629-35.113-67.63h-68.715l72.402 125.372v81.86h61.961v-81.86l72.5-125.371Zm69.18 439.34c0 1.456-.102 3.3-.192 3.98h-27.757c.484 6.406 4.855 9.027 9.8 9.027 2.915 0 5.63-.87 7.961-3.203l8.153 6.887c-4.27 5.34-10.774 7.277-16.598 7.277-13.39 0-21.058-10.285-21.058-23.773 0-14.657 9.027-23.977 20.285-23.977 12.035 0 19.41 10.578 19.41 23.778Zm-27.758-4.946h16.305c-.39-5.144-3.688-8.637-8.344-8.637-5.531 0-7.668 4.856-7.96 8.637m164.992 4.945c0 1.457-.101 3.301-.191 3.98h-27.758c.484 6.407 4.856 9.028 9.8 9.028 2.915 0 5.63-.87 7.962-3.203l8.152 6.887c-4.27 5.34-10.773 7.277-16.598 7.277-13.39 0-21.058-10.285-21.058-23.773 0-14.657 9.027-23.977 20.285-23.977 12.035 0 19.41 10.578 19.41 23.778Zm-27.758-4.945h16.305c-.39-5.144-3.687-8.637-8.344-8.637-5.53 0-7.668 4.856-7.96 8.637m-23.101 11.645 7.57 7.18c-3.879 4.945-9.219 10.09-18.246 10.09-12.515 0-21.742-9.993-21.742-23.774 0-12.617 7.668-23.977 21.934-23.977 8.156 0 13.785 3.692 17.957 9.903l-7.762 7.859c-2.715-3.586-5.63-6.402-10.285-6.402-6.313 0-9.614 5.336-9.614 12.421 0 6.598 2.914 12.52 9.704 12.52 4.175 0 7.671-2.23 10.484-5.82m-105.594-76.09h-11.262v-3.207c-2.523 2.816-6.593 4.172-10.675 4.172-11.84 0-16.305-8.543-16.305-20.868v-25.914h11.45v24.942c0 6.21 1.265 10.867 7.671 10.867 6.402 0 7.668-4.855 7.668-10.484v-25.332h11.453Zm35.715-13.395-1.648 11.653c-2.332 1.84-6.598 2.714-9.41 2.714-6.989 0-12.426-5.238-12.426-13.59V546.79h-6.598V535.82h6.598v-11.933l11.453-5.82v17.761h10.867v10.965h-10.867v19.223c0 3.98 1.648 5.437 4.46 5.437 2.817 0 5.731-1.457 7.571-3.207Zm-173.922 13.395h-11.453v-24.946c0-6.21-1.36-10.773-7.762-10.773-6.406 0-7.863 4.172-7.863 10.484v25.235H286.8v-57.746l11.45-5.82v20.96c2.523-2.523 5.633-4.172 10.777-4.172 12.133 0 16.305 9.317 16.305 20.961v25.817Zm204.395 92.394h-11.84v-24.941c0-6.406-1.457-10.676-7.863-10.676-6.02 0-7.961 3.59-7.961 10.383v25.234h-11.84v-45.812h11.84v3.11c2.425-2.427 6.02-4.075 11.16-4.075 12.426 0 16.5 9.61 16.5 20.867v25.914ZM381.62 624.242a6.75 6.75 0 0 0 6.793-6.793 6.75 6.75 0 0 0-6.793-6.797 6.75 6.75 0 0 0-6.797 6.797 6.75 6.75 0 0 0 6.797 6.793m-302.617 0a6.75 6.75 0 0 0 6.797-6.793 6.75 6.75 0 0 0-6.797-6.797 6.75 6.75 0 0 0-6.793 6.797 6.75 6.75 0 0 0 6.793 6.793m540.984-65.613c0 1.457-.101 3.3-.191 3.98h-27.758c.484 6.407 4.856 9.028 9.8 9.028 2.915 0 5.63-.875 7.962-3.203l8.152 6.886c-4.27 5.336-10.773 7.278-16.598 7.278-13.39 0-21.058-10.285-21.058-23.774 0-14.656 9.027-23.976 20.285-23.976 12.035 0 19.41 10.578 19.41 23.777Zm-27.758-4.945h16.305c-.39-5.149-3.687-8.637-8.344-8.637-5.53 0-7.668 4.855-7.96 8.637m-49.398 27.949H531.57v-3.207c-2.523 2.816-6.597 4.172-10.675 4.172-11.84 0-16.305-8.543-16.305-20.868v-25.914h11.45v24.942c0 6.21 1.265 10.867 7.67 10.867 6.403 0 7.669-4.855 7.669-10.484v-25.332h11.453Zm-171.988-23.004c0 1.457-.098 3.3-.192 3.98h-27.754c.48 6.407 4.852 9.028 9.801 9.028 2.914 0 5.63-.875 7.961-3.203l8.152 6.886c-4.273 5.336-10.777 7.278-16.597 7.278-13.39 0-21.063-10.285-21.063-23.774 0-14.656 9.028-23.976 20.29-23.976 12.03 0 19.41 10.578 19.41 23.777Zm-27.754-4.945h16.305c-.391-5.149-3.688-8.637-8.344-8.637-5.531 0-7.672 4.855-7.961 8.637m92.879 120.343h-11.84v-3.007c-3.883 2.816-6.215 3.98-10.387 3.98-13.199 0-18.828-11.453-18.828-24.266 0-13.882 6.598-23.484 18.535-23.484 3.98 0 7.766 1.066 10.68 3.688V616.28l11.84-5.922Zm-11.836-14.168v-17.468c-2.524-2.715-4.945-3.98-8.25-3.98-6.89 0-8.543 5.437-8.543 11.933 0 7.379 2.129 13.492 8.832 13.492 3.3 0 5.629-1.461 7.96-3.98Zm-48.531-31.644v45.812h11.84v-45.812Zm-6.891-16.297v9.512c-1.746-.586-4.07-.875-5.82-.875-3.399 0-4.946 1.066-4.946 3.98v3.688h9.801v11.066h-9.8v34.742h-11.844V639.29h-6.407v-11.066h6.407v-5.532c0-8.543 5.34-12.03 13.972-12.03 2.528 0 6.215.288 8.637 1.26Zm-34.84 62.11h-11.844v-24.942c0-6.406-1.457-10.676-7.859-10.676-6.023 0-7.961 3.59-7.961 10.383v25.234h-11.844v-45.812h11.844v3.11c2.422-2.427 6.02-4.075 11.16-4.075 12.422 0 16.496 9.61 16.496 20.867v25.914Zm-68.039-46.778c-13.2 0-21.453 10.383-21.453 23.875 0 14.172 9.027 23.875 21.453 23.875s21.453-9.703 21.453-23.875-8.254-23.875-21.453-23.875m0 36.297c-7.57 0-9.219-7.277-9.219-12.422 0-7.086 2.914-12.52 9.219-12.52s9.219 5.438 9.219 12.52c0 5.145-1.649 12.422-9.219 12.422m-32.902-5.824 7.57 7.18c-3.883 4.945-9.219 10.09-18.246 10.09-12.52 0-21.742-9.993-21.742-23.774 0-12.617 7.668-23.977 21.933-23.977 8.153 0 13.782 3.692 17.953 9.903l-7.761 7.859c-2.715-3.586-5.63-6.402-10.285-6.402-6.309 0-9.61 5.336-9.61 12.421 0 6.598 2.914 12.52 9.703 12.52 4.172 0 7.668-2.23 10.485-5.82m-61.239 16.304h-11.84v-24.941c0-6.406-1.456-10.676-7.863-10.676-6.02 0-8.05 3.59-8.05 10.383v25.234h-11.844v-57.746l11.844-5.922v20.965c2.23-2.719 6.886-4.074 11.449-4.074 12.035 0 16.304 9.512 16.304 20.867v25.914Zm-46.882-13.78-1.746 11.933c-2.426 1.941-8.254 2.812-11.36 2.812-7.18 0-12.324-5.726-12.324-13.68v-22.035h-7.961v-11.066h7.96v-11.934l11.84-5.922v17.856h13.391v11.066h-13.39v18.828c0 4.172 1.55 5.532 4.367 5.532 2.812 0 7.176-1.457 9.219-3.399Zm-51.723-32.032v45.812h11.84v-45.812Zm-6.215 0-14.457 45.812H41.547l-7.766-27.855-7.86 27.855H15.056L.684 628.215h13.199l6.887 26.594 7.761-26.594H39.31l7.761 26.594 6.989-26.594Zm355.516-108.602v9.414c-2.625-.683-4.367-.972-5.922-.972-4.074 0-4.95 1.457-4.95 3.785v3.98h7.762v11.067h-7.761v34.746h-11.45v-34.746h-5.628V535.82h5.628v-5.53c0-7.958 4.172-12.032 13.88-12.032 3.109 0 5.632.582 8.445 1.355Zm-140.832 48.625-1.649 11.653c-2.332 1.84-6.406 2.714-9.219 2.714-6.988 0-12.425-5.238-12.425-13.59V546.79H250.3V535.82h7.96v-11.933l11.454-5.82v17.761h10.676v10.965h-10.676v19.223c0 3.98 1.648 5.437 4.46 5.437 2.817 0 5.532-1.457 7.38-3.207Zm-53.282-9.61c0 1.458-.097 3.302-.191 3.981h-26.789c.48 6.407 4.945 9.028 9.898 9.028 2.914 0 5.532-.875 7.864-3.203l8.152 6.886c-3.789 5.047-10.676 7.278-16.789 7.278-13.102 0-20.871-10.285-20.871-23.684 0-13.398 8.445-24.066 20.379-24.066 12.812 0 18.347 11.648 18.347 23.777Zm-26.789-4.944h16.305c-.484-5.149-3.496-8.637-8.445-8.637-5.239 0-7.57 4.855-7.86 8.637m-17.37 5.144c0 11.742-4.856 23.777-17.856 23.777-5.051 0-8.156-1.843-10.196-3.789v13.977l-11.449 5.727v-62.7h11.45v3.106c3.007-2.715 6.113-4.07 10.386-4.07 12.324 0 17.664 11.648 17.664 23.972m-11.844.578c0-6.695-1.75-13.492-8.637-13.492-3.203 0-5.727 1.457-7.57 4.074v17.473c1.843 2.621 4.949 4.172 8.253 4.172 6.403 0 7.961-5.824 7.961-12.227Zm-35.618 22.227H125.2v-3.207c-2.715 2.715-6.21 4.172-10.676 4.172-9.027 0-16.113-5.82-16.113-15.914s6.887-15.43 17.856-15.43c2.914 0 5.921.39 8.93 1.84v-2.426c0-4.27-2.817-6.02-7.864-6.02-3.59 0-6.988.875-10.574 3.008l-4.567-8.152c4.95-3.106 9.704-4.656 15.825-4.656 11.55 0 18.636 5.629 18.636 16.015ZM125.2 568.238v-5.82c-2.332-1.457-5.336-1.941-7.668-1.941-5.047 0-7.472 2.234-7.472 5.921 0 3.497 2.234 6.313 6.504 6.313 2.234 0 6.113-.777 8.636-4.465Zm-33.094 13.395H80.656v-24.946c0-6.21-1.36-10.773-7.765-10.773-6.403 0-7.86 4.172-7.86 10.484v25.235H53.578v-57.746l11.453-5.82v20.96c2.524-2.523 5.63-4.172 10.774-4.172 12.132 0 16.308 9.317 16.308 20.961v25.817Zm-44.835-18.34c0 13.781-10.485 19.312-22.903 19.312-8.937 0-18.836-2.816-24.367-10.968l8.543-7.57c3.98 4.757 9.703 6.988 15.531 6.988 6.887 0 10.867-3.106 10.867-7.473 0-1.746-.68-3.496-3.59-4.945-2.132-1.067-4.753-1.75-9.898-3.008-3.207-.774-9.805-2.332-13.883-5.629-4.074-3.297-5.238-8.055-5.238-12.227 0-12.906 11.066-18.144 21.934-18.144 9.41 0 16.207 3.879 21.644 9.41l-8.543 8.344c-3.98-3.98-7.863-6.211-13.883-6.211-5.144 0-8.925 1.648-8.925 5.922 0 1.84.68 3.105 2.523 4.172 2.133 1.164 5.145 2.039 9.8 3.203 5.532 1.457 10.677 2.715 14.848 6.113 3.692 3.008 5.532 6.988 5.532 12.719Zm533.511-25.332-4.676 11.45c-1.75-1.65-3.789-2.813-6.597-2.813-5.438 0-6.781 4.562-6.781 10.09v24.945h-11.454V535.82h11.454v3.207c2.62-2.625 5.918-4.172 9.609-4.172 3.203 0 6.02.973 8.445 3.106m0 0" style="stroke:none;fill-rule:nonzero;fill:#2e2e38;fill-opacity:1"/></g></svg>