<?xml version="1.0" encoding="UTF-8" standalone="no"?>
<!-- Created with Inkscape (http://www.inkscape.org/) -->

<svg
   xmlns:dc="http://purl.org/dc/elements/1.1/"
   xmlns:cc="http://creativecommons.org/ns#"
   xmlns:rdf="http://www.w3.org/1999/02/22-rdf-syntax-ns#"
   xmlns:svg="http://www.w3.org/2000/svg"
   xmlns="http://www.w3.org/2000/svg"
   xmlns:sodipodi="http://sodipodi.sourceforge.net/DTD/sodipodi-0.dtd"
   xmlns:inkscape="http://www.inkscape.org/namespaces/inkscape"
   version="1.1"
   width="1102.4305"
   height="1157.7572"
   viewBox="0 0 1102.4306 1157.7572"
   id="Layer_1"
   xml:space="preserve"
   inkscape:version="0.48.4 r9939"
   sodipodi:docname="KiwixLogoVertical2.svg"><sodipodi:namedview
     pagecolor="#ffffff"
     bordercolor="#666666"
     borderopacity="1"
     objecttolerance="10"
     gridtolerance="10"
     guidetolerance="10"
     inkscape:pageopacity="0"
     inkscape:pageshadow="2"
     inkscape:window-width="1855"
     inkscape:window-height="1028"
     id="namedview14"
     showgrid="false"
     fit-margin-top="0"
     fit-margin-left="0"
     fit-margin-right="0"
     fit-margin-bottom="0"
     inkscape:zoom="0.62047341"
     inkscape:cx="560.63474"
     inkscape:cy="396.72759"
     inkscape:window-x="65"
     inkscape:window-y="24"
     inkscape:window-maximized="1"
     inkscape:current-layer="g3209" /><metadata
     id="metadata16"><rdf:RDF><cc:Work
         rdf:about=""><dc:format>image/svg+xml</dc:format><dc:type
           rdf:resource="http://purl.org/dc/dcmitype/StillImage" /><dc:title /></cc:Work></rdf:RDF></metadata><defs
     id="defs14" /><g
     transform="translate(665.48556,18.943957)"
     id="layer1"><g
       transform="translate(411.429,45.7143)"
       id="g3885" /><g
       id="g3209"><path
         d="m 329.499,642.258 c 0,102.02 -82.703,184.723 -184.721,184.723 -102.02,0 -184.722,-82.703 -184.722,-184.723 0,-102.02 82.702,-184.721 184.722,-184.721 102.018,0.001 184.721,82.702 184.721,184.721 z"
         id="path3204"
         style="fill:#010101"
         inkscape:connector-curvature="0" /><path
         d="m -341.688,-18.906 c -261.543,3.772 -460.8,288.504 -205.33,546.989 l 68.09,177.43 c 11.307,40.559 -27.044,129.814 -10.068,154.736 19.56,-38.27 24.484,-92.982 50.339,-99.289 45.47,31.785 112.737,42.568 150.751,83.557 14.205,-39.736 -43.409,-60.029 -91.669,-82.783 45.102,7.449 76.298,-16.74 109.687,22.18 4.918,-19.689 -1.29,-34.746 -14.306,-46.938 l -20.4,-27.594 c 37.713,19.816 131.569,19.693 153.136,54.414 8.334,-65.703 -70.591,-43.264 -107.833,-62.926 24.166,2.967 48.173,-8.934 72.065,-5.672 -6.402,-18.432 -17.399,-26.404 -33.649,-25.016 -128.129,30.227 -137.148,-183.979 -135.386,-244.74 171.999,-72.216 345.696,57.33 484.053,-67.052 45.299,-66.978 232.281,107.951 289.845,256.087 C 503.708,578.456 258.167,343.179 186.872,279.475 224.113,181.502 79,38.879 -52.107,101.787 -144.357,15.09 -247.087,-20.271 -341.688,-18.906 z m -69.415,529.451 c 12.543,-0.268 22.692,6.502 24.64,20.375 l 27.819,131.523 c -14.989,4.271 -21.514,19.117 -18.546,45.906 6.35,-7.418 8.965,-20.088 23.578,-15.99 l 34.444,43.842 c -117.14,9.066 -126.161,-56.439 -146.514,-164.793 6.202,-40.218 33.675,-60.413 54.579,-60.863 z"
         id="path3202"
         style="fill:#010101"
         inkscape:connector-curvature="0" /><path
         d="m 92.038,225.336 c 0,30.629 -23.636,55.459 -52.792,55.459 -29.156,0 -52.792,-24.83 -52.792,-55.459 0,-30.629 23.636,-55.458 52.792,-55.458 29.156,0 52.792,24.829 52.792,55.458 z"
         id="path4159"
         style="fill:#ffffff"
         inkscape:connector-curvature="0" /><path
         d="m 85.981,253.08 c 0,19.582 -15.111,35.456 -33.753,35.456 -18.642,0 -33.753,-15.874 -33.753,-35.456 0,-19.583 15.111,-35.457 33.753,-35.457 18.642,0 33.753,15.874 33.753,35.457 z"
         id="path4159-1"
         style="fill:#010101"
         inkscape:connector-curvature="0" /><path
         style="fill:#010101"
         d="m -611.02447,878.71825 c -22.311,0.0318 -45.95375,0.34971 -54.69558,0.0951 l 0.83479,259.99989 76.64336,0 0,-102.2005 112.92159,102.2005 94.08682,0 -151.37369,-135.9716 139.61718,-124.02829 -89.39117,0 -108.20855,95.65857 0.83479,-95.65857 c -6.53829,-0.0848 -13.83255,-0.10568 -21.26954,-0.0951 z m 250.97357,0.0951 0,259.99989 77.61728,0 0,-259.99989 -77.61728,0 z m 384.590755,0 0,259.99989 77.634685,0 0,-259.99989 -77.634685,0 z m 129.391125,0 94.67813,128.87519 -99.9825,131.1247 78.22603,0 66.45206,-87.2 65.86081,87.2 79.39116,0 -98.79982,-132.2018 95.86071,-127.79809 -79.98251,0 -62.33035,84.95063 -60.57385,-84.95063 -78.79987,0 z m -247.408353,1.33058 c -6.065631,0.18197 -12.600577,4.69399 -15.095627,12.13358 l -35.75647,106.65155 c -6.69551,19.97078 -22.30995,36.29518 -35.77387,9.85258 L -206.712,956.50916 c -11.44095,-22.4722 -43.31709,-26.73749 -29.113,12.11773 18.06021,49.40591 55.6763,70.24341 54.22602,139.07631 -0.67619,32.0831 34.05241,38.441 45.91297,15.46 20.19725,-39.1361 57.984338,-62.9633 101.965078,-87.8811 35.2528202,-19.9722 9.159497,-34.7618 -8.313029,-24.9958 l -36.608678,20.4655 c -65.198631,26.292 -11.962804,-92.99523 -4.156483,-123.33117 5.056436,-19.6488 -2.366106,-27.52604 -10.678251,-27.27674 z"
         id="path2467"
         inkscape:connector-curvature="0" /></g></g></svg>