<svg viewBox="0 0 512 512" xmlns="http://www.w3.org/2000/svg" fill-rule="evenodd" clip-rule="evenodd" stroke-linejoin="round" stroke-miterlimit="2"><path d="M339.332 261.841c.187-39.746-31.262-73.335-73.188-78.17-41.926-4.835-81.065 20.613-91.086 59.224-10.02 38.612 12.247 78.17 51.822 92.063l-32.049 160.625h122.91l-31.486-160.942c31.95-11.65 53.027-40.557 53.077-72.8z" fill="#1a3967" fill-rule="nonzero"/><path d="M506 260.788C503.183 125.014 392.083 16.417 256 16.417c-136.085 0-247.184 108.597-250 244.37-.003 88.005 46.882 169.374 123.1 213.642l16.056-106.18a145.966 145.966 0 01-38.321-98.595C109 188.996 175.145 124.734 256 124.734c80.854 0 147 64.262 149.165 144.92a146.072 146.072 0 01-38.857 99.236l15.95 105.86c76.629-44.1 123.814-125.689 123.741-213.962z" fill="#ed7f22" fill-rule="nonzero"/></svg>